<svg width="158" height="135" viewBox="0 0 158 135" fill="none" xmlns="http://www.w3.org/2000/svg">
<rect y="50.2044" width="53.3287" height="84.0952" fill="#9087E5"/>
<path d="M18.7717 89.8844V85.8204C23.7317 81.7244 29.0117 77.6604 29.0117 73.7244C29.0117 72.0284 28.2437 70.9404 26.5797 70.9404C24.9477 70.9404 23.9877 72.2204 23.9877 74.4284H18.7077C18.8677 68.7644 22.5477 66.3324 26.8037 66.3324C32.1157 66.3324 34.4837 69.4364 34.4837 73.3724C34.4837 78.4924 29.9077 82.5884 26.1957 85.4364H34.8357V89.8844H18.7717Z" fill="white"/>
<rect x="105" y="68" width="53" height="66" fill="#9087E5"/>
<path d="M105 62H150.291L158 68H105L105 62Z" fill="#AEA7EC"/>
<path d="M125.458 80.424C125.602 76.968 127.858 75.072 131.434 75.072C135.13 75.072 137.122 77.184 137.122 79.824C137.122 82.128 135.682 83.352 134.482 83.76V83.856C136.234 84.432 137.434 85.776 137.434 88.08C137.434 91.032 135.322 93.144 131.65 93.144C128.002 93.144 125.362 91.416 125.242 87.456H129.226C129.25 88.824 129.994 89.736 131.506 89.736C132.778 89.736 133.474 88.92 133.474 87.768C133.474 86.208 132.538 85.584 130.402 85.584H129.634V82.248H130.402C131.794 82.248 133.138 81.912 133.138 80.328C133.138 79.152 132.442 78.504 131.338 78.504C130.018 78.504 129.538 79.464 129.466 80.424H125.458Z" fill="white"/>
<path d="M7.27209 42H53.3287V50.2044H0L7.27209 42Z" fill="#AEA7EC"/>
<rect x="52.9432" y="8.20441" width="56.4053" height="126.143" fill="url(#paint0_linear_59_1607)"/>
<path d="M61.1476 0H101.144L109.348 8.20441H52.9432L61.1476 0Z" fill="#CDC9F3"/>
<path d="M78.9143 56.2044V35.6484H75.3503V29.9244H85.3223V56.2044H78.9143Z" fill="white"/>
<defs>
<linearGradient id="paint0_linear_59_1607" x1="81.1458" y1="8.20441" x2="81.1458" y2="96.9146" gradientUnits="userSpaceOnUse">
<stop stop-color="#9087E5"/>
<stop offset="1" stop-color="#CDC9F3"/>
</linearGradient>
</defs>
</svg>
