<svg width="318" height="432" viewBox="0 0 318 432" fill="none" xmlns="http://www.w3.org/2000/svg">
<rect y="218" width="104" height="164" fill="#9087E5"/>
<path d="M32.2684 301.2V291.04C44.6684 280.8 57.8684 270.64 57.8684 260.8C57.8684 256.56 55.9484 253.84 51.7884 253.84C47.7084 253.84 45.3084 257.04 45.3084 262.56H32.1084C32.5084 248.4 41.7084 242.32 52.3484 242.32C65.6284 242.32 71.5484 250.08 71.5484 259.92C71.5484 272.72 60.1084 282.96 50.8284 290.08H72.4284V301.2H32.2684Z" fill="white"/>
<rect x="214" y="250" width="104" height="164" fill="#9087E5"/>
<path d="M214 234H302.873L318 250H214L214 234Z" fill="#AEA7EC"/>
<path d="M250.396 281.56C250.756 272.92 256.396 268.18 265.336 268.18C274.576 268.18 279.556 273.46 279.556 280.06C279.556 285.82 275.956 288.88 272.956 289.9V290.14C277.336 291.58 280.336 294.94 280.336 300.7C280.336 308.08 275.056 313.36 265.876 313.36C256.756 313.36 250.156 309.04 249.856 299.14H259.816C259.876 302.56 261.736 304.84 265.516 304.84C268.696 304.84 270.436 302.8 270.436 299.92C270.436 296.02 268.096 294.46 262.756 294.46H260.836V286.12H262.756C266.236 286.12 269.596 285.28 269.596 281.32C269.596 278.38 267.856 276.76 265.096 276.76C261.796 276.76 260.596 279.16 260.416 281.56H250.396Z" fill="white"/>
<path d="M14.1818 202H104V218H0L14.1818 202Z" fill="#AEA7EC"/>
<rect x="104" y="186" width="110" height="246" fill="url(#paint0_linear_44_949)"/>
<path d="M120 170H198L214 186H104L120 170Z" fill="#CDC9F3"/>
<path d="M152.801 291V233.9H142.901V218H170.601V291H152.801Z" fill="white"/>
<defs>
<linearGradient id="paint0_linear_44_949" x1="159" y1="186" x2="159" y2="359" gradientUnits="userSpaceOnUse">
<stop stop-color="#9087E5"/>
<stop offset="1" stop-color="#CDC9F3"/>
</linearGradient>
</defs>
</svg>
